<svg xmlns="http://www.w3.org/2000/svg" width="149.19" height="154.3" viewBox="0 0 149.19 154.3"><path d="M137.11,150.81a6.16,6.16,0,0,1-4.47-1.9l-2-2.11-28.78-30.14a14,14,0,0,1-3.68-7.34A71.94,71.94,0,0,0,85.39,79.37a73.39,73.39,0,0,0-6-7.17c-.87-.91-1.74-1.78-2.59-2.58a71.6,71.6,0,0,0-33.64-17.9,14,14,0,0,1-7.14-4L5.26,15.5a6.73,6.73,0,0,1-.92-1.24,6.2,6.2,0,0,1-.22-5.75A6.28,6.28,0,0,1,8.82,5a118.44,118.44,0,0,1,93.12,24.91,104.86,104.86,0,0,1,10.85,9.88c2.06,2.16,4,4.4,5.84,6.67a117.61,117.61,0,0,1,24.64,99.36,6.33,6.33,0,0,1-6.16,5Zm-11.6-42.57a3.1,3.1,0,0,0-2.14.86,3.08,3.08,0,0,0,1.44,5.25,3.11,3.11,0,0,0,.72.08,3.06,3.06,0,0,0,2.12-.85,3.1,3.1,0,0,0-2.14-5.34ZM45.82,24.78a3,3,0,0,0-2.13.86,3.06,3.06,0,0,0-.27,4.19l.12.14a3.12,3.12,0,0,0,2.29,1,3.09,3.09,0,0,0,2.58-4.78,3.32,3.32,0,0,0-.33-.44A3.12,3.12,0,0,0,45.82,24.78Z" transform="translate(-0.02 -0.01)"/><path d="M27.46,7A114.49,114.49,0,0,1,99.73,32.6a101.06,101.06,0,0,1,10.53,9.59c2,2.08,3.88,4.23,5.64,6.44a114.61,114.61,0,0,1,23.94,96.46,2.78,2.78,0,0,1-2.73,2.22,2.72,2.72,0,0,1-2-.86l0,0-1.91-2-20.6-21.57L108.89,119l-4.51-4.73a10.54,10.54,0,0,1-2.77-5.51A74.81,74.81,0,0,0,88.22,77.3a76.74,76.74,0,0,0-6.31-7.51c-.88-.93-1.79-1.83-2.72-2.71A74.73,74.73,0,0,0,43.91,48.31a10.75,10.75,0,0,1-5.37-3L18.2,24l-8-8.38-.41-.43-2-2.09A2.78,2.78,0,0,1,9.38,8.43,115.37,115.37,0,0,1,27.46,7M45.83,34.47a6.54,6.54,0,0,0,4.55-1.83,5.09,5.09,0,0,0,.75-.86,6.56,6.56,0,0,0,.19-7.54,5.65,5.65,0,0,0-.72-.91,6.6,6.6,0,0,0-9.87,8.74c.11.12.21.25.32.36a6.59,6.59,0,0,0,4.78,2m79.7,83.46a6.61,6.61,0,1,0-1.47-.16,6.62,6.62,0,0,0,1.47.16M27.46,0A123.08,123.08,0,0,0,8.28,1.52a9.79,9.79,0,0,0-5.6,16.35l0,0,0,0,2,2.09.4.42,8,8.39L33.48,50.11a17.61,17.61,0,0,0,8.89,5,68,68,0,0,1,32,17c.81.77,1.64,1.59,2.47,2.47a70.51,70.51,0,0,1,5.73,6.81,68.53,68.53,0,0,1,12.14,28.49,17.53,17.53,0,0,0,4.61,9.16l4.5,4.71,3.68,3.86,20.59,21.56,1.9,2,.07.07.06.06a9.64,9.64,0,0,0,7,3,9.82,9.82,0,0,0,9.58-7.8,122.89,122.89,0,0,0-.86-53.37,120.17,120.17,0,0,0-24.5-48.93c-1.87-2.34-3.89-4.64-6-6.85A107,107,0,0,0,104.1,27.14,121.88,121.88,0,0,0,27.46,0Z" transform="translate(-0.02 -0.01)" fill="#fff"/></svg>