<svg xmlns="http://www.w3.org/2000/svg" width="350.71" height="408" viewBox="0 0 350.71 408"><path d="M175.41,400.5c-7.47,0-49.2-19.83-90.95-79.31C50,272.07,9,185.27,7.54,49.32,74.75,47,158.54,14.79,175.3,8.09,192.09,14.78,276.11,47,343.18,49.32c-1.65,176.55-69.65,271-110.43,311.8C203.1,390.81,180,400.5,175.41,400.5Z" transform="translate(0 0)" fill="#fff"/><path d="M175.31,16.15c21.27,8.32,96.55,36.19,160.27,40.29-1.09,53.92-8.6,104.1-22.38,149.36-12.32,40.47-29.57,76.93-51.28,108.37-21,30.42-41.75,49.61-55.44,60.36-17.19,13.49-28.26,17.76-31.15,18.41-2.87-.59-14-4.69-31.23-18.25-13.66-10.71-34.35-29.91-55.4-60.54-21.64-31.49-38.85-68-51.16-108.56C23.81,160.35,16.29,110.24,15.15,56.45c63.82-4.11,138.91-32,160.16-40.3M175.3,0S73.74,42,0,42C0,310,150.37,408,175.41,408c23.18,0,175.6-96.36,175.3-366C277.16,42,175.3,0,175.3,0Z" transform="translate(0 0)" fill="#565da9"/></svg>